<?xml version="1.0" encoding="UTF-8" standalone="no"?><!DOCTYPE svg PUBLIC "-//W3C//DTD SVG 1.1//EN" "http://www.w3.org/Graphics/SVG/1.1/DTD/svg11.dtd"><svg width="100%" height="100%" viewBox="0 0 669 309" version="1.1" xmlns="http://www.w3.org/2000/svg" xmlns:xlink="http://www.w3.org/1999/xlink" xml:space="preserve" xmlns:serif="http://www.serif.com/" style="fill-rule:evenodd;clip-rule:evenodd;stroke-linejoin:round;stroke-miterlimit:2;"><rect id="TocoBlogLogoTop" x="-0" y="0" width="668.682" height="308.777" style="fill:none;"/><g><path d="M95.682,236.062c0,-11.891 3.742,-21.689 11.227,-29.396c7.484,-7.707 17.593,-11.56 30.326,-11.56c14.558,-0 25.557,4.526 32.996,13.578c5.978,7.291 8.968,16.27 8.968,26.938c-0,11.988 -3.708,21.811 -11.125,29.469c-7.416,7.658 -17.673,11.487 -30.771,11.487c-11.683,-0 -21.13,-3.181 -28.34,-9.542c-8.854,-7.878 -13.281,-18.203 -13.281,-30.974Zm27.93,-0.073c0,6.948 1.312,12.086 3.936,15.413c2.625,3.328 5.922,4.991 9.892,4.991c4.016,0 7.314,-1.639 9.892,-4.917c2.579,-3.279 3.868,-8.539 3.868,-15.781c0,-6.753 -1.301,-11.781 -3.902,-15.083c-2.601,-3.303 -5.819,-4.955 -9.652,-4.955c-4.062,0 -7.416,1.676 -10.063,5.028c-2.647,3.352 -3.971,8.453 -3.971,15.304Z" style="fill:#fff;fill-rule:nonzero;"/><path d="M240.104,244.356l26.492,3.229c-1.46,5.921 -3.856,11.047 -7.188,15.377c-3.331,4.331 -7.587,7.695 -12.767,10.093c-5.18,2.397 -11.763,3.596 -19.749,3.596c-7.713,0 -14.136,-0.77 -19.271,-2.312c-5.134,-1.541 -9.549,-4.037 -13.246,-7.486c-3.697,-3.45 -6.595,-7.499 -8.694,-12.148c-2.099,-4.648 -3.149,-10.814 -3.149,-18.496c0,-8.025 1.278,-14.704 3.834,-20.038c1.871,-3.915 4.427,-7.426 7.667,-10.533c3.24,-3.107 6.572,-5.419 9.994,-6.936c5.431,-2.398 12.391,-3.596 20.879,-3.596c11.866,-0 20.914,2.275 27.143,6.826c6.23,4.55 10.6,11.205 13.11,19.964l-26.219,3.743c-0.821,-3.327 -2.316,-5.835 -4.484,-7.523c-2.168,-1.688 -5.077,-2.532 -8.728,-2.532c-4.609,-0 -8.34,1.774 -11.193,5.321c-2.852,3.548 -4.278,8.918 -4.278,16.111c-0,6.41 1.415,11.279 4.244,14.606c2.83,3.328 6.435,4.992 10.816,4.992c3.651,-0 6.72,-1.004 9.208,-3.01c2.487,-2.006 4.347,-5.089 5.579,-9.248Z" style="fill:#fff;fill-rule:nonzero;"/><path d="M269.245,236.062c0,-11.891 3.742,-21.689 11.227,-29.396c7.485,-7.707 17.593,-11.56 30.326,-11.56c14.558,-0 25.557,4.526 32.996,13.578c5.978,7.291 8.968,16.27 8.968,26.938c-0,11.988 -3.708,21.811 -11.124,29.469c-7.417,7.658 -17.674,11.487 -30.771,11.487c-11.684,-0 -21.131,-3.181 -28.341,-9.542c-8.854,-7.878 -13.281,-18.203 -13.281,-30.974Zm27.93,-0.073c0,6.948 1.312,12.086 3.937,15.413c2.624,3.328 5.921,4.991 9.891,4.991c4.017,0 7.314,-1.639 9.892,-4.917c2.579,-3.279 3.868,-8.539 3.868,-15.781c0,-6.753 -1.301,-11.781 -3.902,-15.083c-2.601,-3.303 -5.819,-4.955 -9.652,-4.955c-4.062,0 -7.416,1.676 -10.063,5.028c-2.647,3.352 -3.971,8.453 -3.971,15.304Z" style="fill:#fff;fill-rule:nonzero;"/><path d="M361.366,167.214l58.051,0c9.675,0 17.103,2.569 22.283,7.707c5.179,5.138 7.769,11.499 7.769,19.084c0,6.361 -1.848,11.817 -5.545,16.367c-2.464,3.034 -6.069,5.432 -10.816,7.194c7.211,1.859 12.516,5.052 15.916,9.578c3.4,4.526 5.1,10.215 5.1,17.065c0,5.578 -1.209,10.594 -3.628,15.047c-2.419,4.453 -5.727,7.976 -9.926,10.569c-2.601,1.615 -6.526,2.789 -11.774,3.523c-6.983,0.979 -11.615,1.468 -13.897,1.468l-53.533,0l0,-107.602Zm31.285,42.204l13.486,0c4.837,0 8.203,-0.893 10.097,-2.679c1.894,-1.786 2.841,-4.367 2.841,-7.743c-0,-3.132 -0.947,-5.579 -2.841,-7.34c-1.894,-1.762 -5.191,-2.642 -9.892,-2.642l-13.691,-0l-0,20.404Zm-0,42.278l15.813,-0c5.34,-0 9.105,-1.016 11.295,-3.046c2.191,-2.031 3.286,-4.759 3.286,-8.184c0,-3.181 -1.084,-5.737 -3.251,-7.67c-2.168,-1.933 -5.967,-2.9 -11.398,-2.9l-15.745,0l-0,21.8Z" style="fill:#fff;fill-rule:nonzero;"/><rect x="462.729" y="167.214" width="27.93" height="107.602" style="fill:#fff;fill-rule:nonzero;"/><path d="M498.305,236.062c0,-11.891 3.743,-21.689 11.227,-29.396c7.485,-7.707 17.593,-11.56 30.326,-11.56c14.559,-0 25.557,4.526 32.996,13.578c5.979,7.291 8.968,16.27 8.968,26.938c-0,11.988 -3.708,21.811 -11.124,29.469c-7.416,7.658 -17.673,11.487 -30.771,11.487c-11.683,-0 -21.13,-3.181 -28.341,-9.542c-8.854,-7.878 -13.281,-18.203 -13.281,-30.974Zm27.93,-0.073c0,6.948 1.313,12.086 3.937,15.413c2.624,3.328 5.921,4.991 9.892,4.991c4.016,0 7.313,-1.639 9.892,-4.917c2.578,-3.279 3.867,-8.539 3.867,-15.781c0,-6.753 -1.3,-11.781 -3.902,-15.083c-2.601,-3.303 -5.818,-4.955 -9.652,-4.955c-4.062,0 -7.416,1.676 -10.063,5.028c-2.647,3.352 -3.971,8.453 -3.971,15.304Z" style="fill:#fff;fill-rule:nonzero;"/><path d="M639.099,196.867l26.082,0l-0,73.619l0.068,3.45c0,4.893 -0.97,9.554 -2.909,13.982c-1.94,4.428 -4.518,8.013 -7.736,10.753c-3.217,2.74 -7.302,4.722 -12.254,5.945c-4.951,1.223 -10.622,1.835 -17.011,1.835c-14.604,0 -24.633,-2.349 -30.086,-7.046c-5.454,-4.698 -8.181,-10.985 -8.181,-18.864c0,-0.978 0.046,-2.299 0.137,-3.963l27.04,3.303c0.685,2.691 1.734,4.551 3.149,5.578c2.054,1.517 4.632,2.275 7.736,2.275c4.016,0 7.017,-1.149 9.002,-3.449c1.985,-2.3 2.978,-6.313 2.978,-12.038l-0,-11.817c-2.739,3.474 -5.477,5.994 -8.215,7.56c-4.29,2.447 -8.922,3.67 -13.897,3.67c-9.721,0 -17.57,-4.551 -23.549,-13.652c-4.244,-6.459 -6.366,-14.998 -6.366,-25.616c-0,-12.135 2.738,-21.383 8.215,-27.745c5.476,-6.361 12.641,-9.541 21.495,-9.541c5.659,-0 10.325,1.027 13.999,3.082c3.674,2.055 7.108,5.456 10.303,10.203l-0,-11.524Zm-26.219,37.8c0,5.628 1.118,9.799 3.354,12.515c2.237,2.716 5.18,4.073 8.831,4.073c3.469,0 6.378,-1.406 8.728,-4.22c2.351,-2.814 3.526,-7.058 3.526,-12.735c-0,-5.676 -1.232,-10.019 -3.697,-13.028c-2.464,-3.009 -5.476,-4.514 -9.036,-4.514c-3.56,0 -6.401,1.382 -8.523,4.147c-2.122,2.765 -3.183,7.352 -3.183,13.762Z" style="fill:#fff;fill-rule:nonzero;"/><path d="M3.703,148.939l107.788,-0l0,31.052l-36.164,-0l0,94.701l-35.46,-0l0,-94.701l-36.164,-0l-0,-31.052Z" style="fill:#fff;fill-rule:nonzero;"/></g><path d="M299.081,23.882c10.124,-7.275 22.412,-11.54 35.655,-11.54c34.559,0 62.616,29.041 62.616,64.812c0,4.775 -0.5,9.43 -1.449,13.912c-5.83,-14.713 -19.813,-25.087 -36.119,-25.087c-21.537,0 -39.022,18.098 -39.022,40.39c0,15.165 8.092,28.389 20.047,35.295c-1.997,0.199 -4.024,0.301 -6.073,0.301c-34.559,0 -62.617,-29.041 -62.617,-64.811c0,-2.443 0.131,-4.855 0.386,-7.23c3.813,2.284 8.237,3.591 12.953,3.591c14.301,-0 25.911,-12.018 25.911,-26.82c0,-9.63 -4.914,-18.082 -12.288,-22.813Zm-13.623,8.469c7.649,-0 13.859,6.427 13.859,14.344c-0,7.917 -6.21,14.345 -13.859,14.345c-7.649,-0 -13.858,-6.428 -13.858,-14.345c-0,-7.917 6.209,-14.344 13.858,-14.344Zm69.545,-8.888c3.912,0 7.089,3.288 7.089,7.338c-0,4.05 -3.177,7.338 -7.089,7.338c-3.913,0 -7.09,-3.288 -7.09,-7.338c0,-4.05 3.177,-7.338 7.09,-7.338Z" style="fill:#fff;"/></svg>